<?xml version="1.0" encoding="UTF-8"?>
<svg width="500" height="400" viewBox="0 0 500 400" fill="none" xmlns="http://www.w3.org/2000/svg">
  <!-- Background Circle -->
  <circle cx="250" cy="200" r="180" fill="#E6FFFA" opacity="0.5"/>
  
  <!-- Lock Body -->
  <rect x="200" y="150" width="100" height="120" rx="10" fill="#38A169"/>
  
  <!-- Lock Top -->
  <path d="M220 150V120C220 98.9086 236.909 82 258 82H242C263.091 82 280 98.9086 280 120V150" stroke="#38A169" stroke-width="8"/>
  
  <!-- Keyhole -->
  <circle cx="250" cy="200" r="15" fill="white"/>
  <rect x="245" y="215" width="10" height="20" fill="white"/>
  
  <!-- Decorative Elements -->
  <circle cx="150" cy="100" r="20" fill="#38A169" opacity="0.3"/>
  <circle cx="350" cy="300" r="15" fill="#38A169" opacity="0.3"/>
  <circle cx="400" cy="150" r="25" fill="#38A169" opacity="0.3"/>
  <circle cx="100" cy="250" r="18" fill="#38A169" opacity="0.3"/>
  
  <!-- Abstract Lines -->
  <path d="M100 150C150 100 200 300 250 250" stroke="#38A169" stroke-width="2" opacity="0.3"/>
  <path d="M300 100C350 150 400 200 450 150" stroke="#38A169" stroke-width="2" opacity="0.3"/>
</svg> 