<?xml version="1.0" encoding="UTF-8"?>
<svg width="500" height="400" viewBox="0 0 500 400" fill="none" xmlns="http://www.w3.org/2000/svg">
  <!-- Background Circle -->
  <circle cx="250" cy="200" r="180" fill="#E6FFFA" opacity="0.5"/>
  
  <!-- User Icon -->
  <circle cx="250" cy="150" r="50" fill="#38A169"/>
  <path d="M150 300C150 255.817 195.817 220 250 220C304.183 220 350 255.817 350 300" stroke="#38A169" stroke-width="8"/>
  
  <!-- Plus Sign -->
  <circle cx="350" cy="100" r="30" fill="#38A169" opacity="0.8"/>
  <rect x="340" y="85" width="20" height="30" fill="white"/>
  <rect x="330" y="95" width="40" height="10" fill="white"/>
  
  <!-- Decorative Elements -->
  <circle cx="150" cy="100" r="20" fill="#38A169" opacity="0.3"/>
  <circle cx="350" cy="300" r="15" fill="#38A169" opacity="0.3"/>
  <circle cx="400" cy="150" r="25" fill="#38A169" opacity="0.3"/>
  <circle cx="100" cy="250" r="18" fill="#38A169" opacity="0.3"/>
  
  <!-- Abstract Lines -->
  <path d="M100 150C150 100 200 300 250 250" stroke="#38A169" stroke-width="2" opacity="0.3"/>
  <path d="M300 100C350 150 400 200 450 150" stroke="#38A169" stroke-width="2" opacity="0.3"/>
</svg> 